<svg xmlns="http://www.w3.org/2000/svg" viewBox="0 0 139 46.82"><g id="Ebene_2" data-name="Ebene 2"><path d="M10.65,18.41,16,1.1h4L12.61,22.93H8.51L1,1.1H5.11Z" transform="translate(-0.96 -0.71)"/><path d="M18.12,12c0-6.71,4-11.29,10.41-11.29S39,5.29,39,12,35,23.32,28.53,23.32,18.12,18.71,18.12,12ZM35,12c0-5.3-2.86-8.16-6.48-8.16S22.06,6.7,22.06,12s2.86,8.19,6.47,8.19S35,17.3,35,12Z" transform="translate(-0.96 -0.71)"/><path d="M43.63,5.5V22.93H39.92V1.1H45l9.24,17.43V1.1H58V22.93H52.87Z" transform="translate(-0.96 -0.71)"/><path d="M10.65,38H7v9.18H3.13V25.32h7c6.44,0,9.72,1.44,9.72,6.29a5.53,5.53,0,0,1-4.09,5.63l5,9.9H16.4l-4.6-9.21C11.44,38,11,38,10.65,38Zm-3.7-3h3.79c3.28,0,5.15-.66,5.15-3.28,0-2.86-2.26-3.25-5.27-3.25H7Z" transform="translate(-0.96 -0.71)"/><path d="M24.44,38.2c0,4,1,6.2,5.11,6.2s5.09-2.32,5.09-6.32V25.32h3.82V37.93c0,6.89-2.55,9.6-8.91,9.6s-8.94-2.44-8.94-9.48V25.32h3.83Z" transform="translate(-0.96 -0.71)"/><path d="M57.67,36.21c0,8.52-5.27,10.93-12.19,10.93h-6V25.32h6C52.4,25.32,57.67,27.69,57.67,36.21ZM43.34,28.39V44.07h2c4.18,0,8.39-.93,8.39-7.86s-4.21-7.82-8.39-7.82Z" transform="translate(-0.96 -0.71)"/><path d="M61.37,43.83H73.92v3.31H56.7V44L68.93,28.63H57.67V25.32H73.56v3.1Z" transform="translate(-0.96 -0.71)"/><path d="M74.8,47.14V25.32h3.82V47.14Z" transform="translate(-0.96 -0.71)"/><path d="M83.49,29.71V47.14h-3.7V25.32h5.12l9.24,17.43V25.32h3.7V47.14H92.74Z" transform="translate(-0.96 -0.71)"/><path d="M99.09,31.07c0-4.1,4.25-6.15,8.25-6.15,4.3,0,7.68,2,8.55,6.51h-3.7c-.64-2.62-2.92-3.37-5.06-3.37-1.69,0-4.19.75-4.19,2.89,0,1.68,1.39,2.52,3.26,2.89l2.67.51c3.83.75,7.47,2.14,7.47,6.53s-4.36,6.65-8.67,6.65c-5.18,0-8.73-2.83-9.18-7.61h3.76a5.23,5.23,0,0,0,5.6,4.48c2.59,0,4.67-1.17,4.67-3.28s-2.41-3-4.49-3.37l-2.65-.51C102,36.55,99.09,34.77,99.09,31.07Z" transform="translate(-0.96 -0.71)"/><path d="M130.18,25.32h4.54l-8.1,8.88,8.85,12.94H131L124.09,37l-3.19,3.49v6.68h-3.82V25.32h3.82V35.7Z" transform="translate(-0.96 -0.71)"/><path d="M136.13,47.14V25.32H140V47.14Z" transform="translate(-0.96 -0.71)"/></g></svg>